<svg id="Livello_1" data-name="Livello 1" xmlns="http://www.w3.org/2000/svg" viewBox="0 0 464 607"><defs><style>.cls-1{fill:#141413;}</style></defs><polygon class="cls-1" points="357.59 280.25 357.09 280.25 357.09 279.64 357.59 279.63 357.59 280.25"/><path class="cls-1" d="M362.28,280.47a4.64,4.64,0,0,0-.69-.37,3.84,3.84,0,0,0-.84-.22l.1-.49a4.58,4.58,0,0,1,.93.25,6.07,6.07,0,0,1,.76.4Z"/><rect class="cls-1" x="360.55" y="279.63" width="0.5" height="0.62"/><path class="cls-1" d="M234.55,333.84a73.13,73.13,0,0,1-1.48-7.7,59.66,59.66,0,0,1-.53-7.83h.5a58.88,58.88,0,0,0,.53,7.77,72.39,72.39,0,0,0,1.46,7.64Z"/><path class="cls-1" d="M233,346.78h-.5a15.24,15.24,0,0,1,.54-4,20.9,20.9,0,0,1,1.49-3.88l.45.22a20.67,20.67,0,0,0-1.46,3.79A15.09,15.09,0,0,0,233,346.78Z"/><path class="cls-1" d="M234.57,297.69a20.9,20.9,0,0,1-1.49-3.88,15.16,15.16,0,0,1-.54-4h.5a15.08,15.08,0,0,0,.52,3.83,21.42,21.42,0,0,0,1.46,3.79Z"/><path class="cls-1" d="M233,318.31h-.5a59.66,59.66,0,0,1,.53-7.83,73.63,73.63,0,0,1,1.48-7.7l.48.12a72.55,72.55,0,0,0-1.46,7.65A58.61,58.61,0,0,0,233,318.31Z"/><path class="cls-1" d="M234.57,354.62a20.9,20.9,0,0,1-1.49-3.88,15.22,15.22,0,0,1-.54-4h.5a15.08,15.08,0,0,0,.52,3.83A21.42,21.42,0,0,0,235,354.4Z"/><path class="cls-1" d="M233,289.85h-.5a15.16,15.16,0,0,1,.54-4,21,21,0,0,1,1.49-3.89l.45.22a21.24,21.24,0,0,0-1.46,3.79A15.09,15.09,0,0,0,233,289.85Z"/><path class="cls-1" d="M315.83,280.51h-3a.25.25,0,0,1-.25-.25h0a.25.25,0,0,1,.25-.24h3Z"/><path class="cls-1" d="M312.37,505a.25.25,0,0,1-.25-.25v-3h.5v3A.25.25,0,0,1,312.37,505Z"/><path class="cls-1" d="M335.73,505a64.28,64.28,0,0,1-9.89-.79,79.37,79.37,0,0,1-9.78-2.22l.14-.48a76.19,76.19,0,0,0,9.72,2.2,63.26,63.26,0,0,0,9.81.79h.06a62.91,62.91,0,0,0,9.78-.8,77.55,77.55,0,0,0,9.67-2.19l.14.48a78.58,78.58,0,0,1-9.73,2.21,65.29,65.29,0,0,1-9.86.8Z"/><path class="cls-1" d="M382.43,505a64.15,64.15,0,0,1-9.88-.79,79,79,0,0,1-9.78-2.22l.14-.48a76.44,76.44,0,0,0,9.71,2.2,63.26,63.26,0,0,0,9.81.79h.07a63.11,63.11,0,0,0,9.78-.8,77.55,77.55,0,0,0,9.67-2.19l.13.48a78.44,78.44,0,0,1-9.72,2.21,65.29,65.29,0,0,1-9.86.8Z"/><rect class="cls-1" x="405.53" y="501.76" width="0.5" height="2.94"/><path class="cls-1" d="M402,429.65a80.61,80.61,0,0,0-9.72-2.2,63.23,63.23,0,0,0-9.81-.78h-.07a63.08,63.08,0,0,0-9.78.79,80.71,80.71,0,0,0-9.66,2.19l-.14-.48a79.77,79.77,0,0,1,9.72-2.2,62.1,62.1,0,0,1,19.81,0,78.87,78.87,0,0,1,9.78,2.21Z"/><path class="cls-1" d="M355.24,429.65a80.61,80.61,0,0,0-9.72-2.2,63.2,63.2,0,0,0-9.8-.78h-.07a62.88,62.88,0,0,0-9.78.79,79.38,79.38,0,0,0-9.67,2.19l-.14-.48a78.48,78.48,0,0,1,9.73-2.2,62.1,62.1,0,0,1,19.81,0,79.69,79.69,0,0,1,9.78,2.21Z"/><rect class="cls-1" x="312.12" y="426.46" width="0.5" height="2.96"/><path class="cls-1" d="M406,429.41h-.5v-3a.25.25,0,0,1,.5,0Z"/><rect class="cls-1" x="258.74" y="356.08" width="50.17" height="0.5"/><rect class="cls-1" x="258.74" y="280.04" width="53.42" height="0.5"/><rect class="cls-1" x="250.09" y="285.54" width="5.19" height="0.5"/><rect class="cls-1" x="250.09" y="350.58" width="5.19" height="0.5"/><rect class="cls-1" x="231.8" y="283.47" width="3.99" height="0.5" transform="translate(-128.83 344.19) rotate(-59.98)"/><rect class="cls-1" x="233.54" y="350.91" width="0.5" height="3.99" transform="translate(-145.12 164.14) rotate(-30)"/><rect class="cls-1" x="312.16" y="280.02" width="0.36" height="0.5" transform="translate(-14.85 17.49) rotate(-3.13)"/><rect class="cls-1" x="234.79" y="281.74" width="15.3" height="0.5"/><rect class="cls-1" x="234.79" y="354.39" width="15.3" height="0.5"/><rect class="cls-1" x="316.01" y="502.51" width="0.5" height="8.99" transform="translate(-280.95 527.39) rotate(-60)"/><rect class="cls-1" x="397.39" y="506.75" width="8.99" height="0.5" transform="translate(-199.64 268.81) rotate(-29.99)"/><rect class="cls-1" x="405.35" y="426.12" width="0.5" height="0.4" transform="matrix(0.5, -0.87, 0.87, 0.5, -166.43, 564.28)"/><rect class="cls-1" x="312.34" y="426.07" width="0.4" height="0.5" transform="translate(-171.27 213.34) rotate(-29.99)"/><rect class="cls-1" x="404.84" y="415.64" width="0.5" height="0.8" transform="translate(-157.75 558.87) rotate(-60)"/><rect class="cls-1" x="312.66" y="415.79" width="0.8" height="0.5" transform="translate(-166.06 212.22) rotate(-29.99)"/><rect class="cls-1" x="405.18" y="416.24" width="0.5" height="9.98"/><rect class="cls-1" x="312.46" y="416.24" width="0.5" height="9.98"/><rect class="cls-1" x="404.49" y="403.04" width="0.5" height="12.8"/><rect class="cls-1" x="313.15" y="403.04" width="0.5" height="12.8"/><rect class="cls-1" x="403.97" y="401.79" width="0.5" height="1.47" transform="translate(-166.23 403.79) rotate(-45.01)"/><rect class="cls-1" x="313.19" y="402.27" width="1.47" height="0.5" transform="translate(-192.68 339.87) rotate(-45)"/><rect class="cls-1" x="397.74" y="509.25" width="0.5" height="8.65"/><rect class="cls-1" x="319.9" y="509.25" width="0.5" height="8.65"/><rect class="cls-1" x="320.77" y="517.54" width="0.5" height="2.45" transform="translate(-272.78 378.85) rotate(-44.99)"/><rect class="cls-1" x="395.91" y="518.51" width="2.45" height="0.5" transform="translate(-250.51 432.76) rotate(-45)"/><rect class="cls-1" x="337.55" y="556.13" width="0.5" height="5.87" transform="translate(-296.38 402.59) rotate(-45)"/><rect class="cls-1" x="377.5" y="559.04" width="5.25" height="0.5" transform="translate(-284.14 432.6) rotate(-45)"/><rect class="cls-1" x="335.48" y="529.04" width="3.6" height="0.5" transform="translate(-219.43 239.5) rotate(-29.99)"/><rect class="cls-1" x="338.58" y="519.63" width="0.5" height="8.76"/><rect class="cls-1" x="312.64" y="387.47" width="0.5" height="14.53"/><rect class="cls-1" x="405.01" y="387.47" width="0.5" height="14.53"/><rect class="cls-1" x="309.43" y="401.75" width="99.29" height="0.5"/><rect class="cls-1" x="408.47" y="387.47" width="0.5" height="14.53"/><rect class="cls-1" x="309.18" y="387.47" width="0.5" height="14.53"/><rect class="cls-1" x="355.66" y="279.69" width="1.74" height="0.5" transform="translate(-76.52 145.98) rotate(-20.95)"/><rect class="cls-1" x="312.12" y="283.71" width="0.5" height="103.76"/><rect class="cls-1" x="307.18" y="378.57" width="103.79" height="0.5"/><rect class="cls-1" x="405.53" y="283.71" width="0.5" height="103.76"/><rect class="cls-1" x="307.18" y="387.22" width="103.79" height="0.5"/><rect class="cls-1" x="306.93" y="378.82" width="0.5" height="8.65"/><rect class="cls-1" x="308.91" y="376.84" width="100.33" height="0.5"/><rect class="cls-1" x="410.72" y="378.82" width="0.5" height="8.65"/><rect class="cls-1" x="312.37" y="283.46" width="93.41" height="0.5"/><rect class="cls-1" x="317.31" y="280.26" width="0.5" height="96.84"/><rect class="cls-1" x="400.34" y="280.26" width="0.5" height="96.84"/><rect class="cls-1" x="315.83" y="280.01" width="86.49" height="0.5"/><rect class="cls-1" x="255.03" y="283.75" width="0.5" height="69.12"/><rect class="cls-1" x="232.54" y="285.44" width="0.5" height="65.73"/><rect class="cls-1" x="234.54" y="333.78" width="0.5" height="5.26"/><rect class="cls-1" x="234.54" y="297.58" width="0.5" height="5.26"/><rect class="cls-1" x="234.79" y="338.79" width="15.3" height="0.5"/><rect class="cls-1" x="234.79" y="333.53" width="15.3" height="0.5"/><rect class="cls-1" x="249.84" y="281.99" width="0.5" height="72.65"/><rect class="cls-1" x="234.79" y="302.59" width="15.3" height="0.5"/><rect class="cls-1" x="234.79" y="297.33" width="15.3" height="0.5"/><rect class="cls-1" x="234.79" y="354.26" width="15.3" height="0.5"/><rect class="cls-1" x="234.79" y="281.86" width="15.3" height="0.5"/><rect class="cls-1" x="234.54" y="281.99" width="0.5" height="0.13"/><rect class="cls-1" x="234.54" y="354.51" width="0.5" height="0.13"/><rect class="cls-1" x="320.15" y="509" width="77.84" height="0.5"/><rect class="cls-1" x="312.37" y="501.51" width="3.76" height="0.5"/><rect class="cls-1" x="355.31" y="501.51" width="7.53" height="0.5"/><rect class="cls-1" x="402.02" y="501.51" width="3.76" height="0.5"/><rect class="cls-1" x="312.71" y="425.97" width="92.72" height="0.5"/><rect class="cls-1" x="402.02" y="429.16" width="3.76" height="0.5"/><rect class="cls-1" x="355.31" y="429.16" width="7.53" height="0.5"/><rect class="cls-1" x="312.37" y="429.16" width="3.76" height="0.5"/><rect class="cls-1" x="355.06" y="429.41" width="0.5" height="72.35"/><rect class="cls-1" x="362.59" y="429.41" width="0.5" height="72.35"/><rect class="cls-1" x="401.77" y="429.41" width="0.5" height="72.35"/><rect class="cls-1" x="315.88" y="429.41" width="0.5" height="72.35"/><rect class="cls-1" x="313.4" y="415.59" width="91.34" height="0.5"/><rect class="cls-1" x="312.71" y="415.99" width="92.72" height="0.5"/><rect class="cls-1" x="313.4" y="402.79" width="91.34" height="0.5"/><rect class="cls-1" x="320.15" y="517.65" width="77.84" height="0.5"/><rect class="cls-1" x="321.88" y="519.38" width="74.38" height="0.5"/><rect class="cls-1" x="405.53" y="429.41" width="0.5" height="72.35"/><rect class="cls-1" x="312.12" y="429.41" width="0.5" height="72.35"/><rect class="cls-1" x="339.87" y="560.9" width="38.4" height="0.5"/><path class="cls-1" d="M312.62,359.79h-.5a3.21,3.21,0,0,0-3.21-3.21v-.5A3.72,3.72,0,0,1,312.62,359.79Z"/><path class="cls-1" d="M255.53,283.75H255a3.72,3.72,0,0,1,3.71-3.71v.5A3.21,3.21,0,0,0,255.53,283.75Z"/><path class="cls-1" d="M258.74,356.58a3.72,3.72,0,0,1-3.71-3.71h.5a3.21,3.21,0,0,0,3.21,3.21Z"/><path class="cls-1" d="M312.54,280.52l0-.5h.35v.5Z"/><path class="cls-1" d="M307.43,378.82h-.5a2,2,0,0,1,2-2v.5A1.48,1.48,0,0,0,307.43,378.82Z"/><path class="cls-1" d="M411.22,378.82h-.5a1.49,1.49,0,0,0-1.48-1.48v-.5A2,2,0,0,1,411.22,378.82Z"/><path class="cls-1" d="M312.62,283.71h-.5a3.71,3.71,0,0,1,3.71-3.7v.5A3.21,3.21,0,0,0,312.62,283.71Z"/><path class="cls-1" d="M406,283.71h-.5a3.21,3.21,0,0,0-3.21-3.2V280A3.71,3.71,0,0,1,406,283.71Z"/><rect class="cls-1" x="335.47" y="530.19" width="0.5" height="26.8"/><rect class="cls-1" x="377.41" y="558.82" width="5.87" height="0.5" transform="translate(-283.92 432.7) rotate(-45)"/><rect class="cls-1" x="380.62" y="527.49" width="0.5" height="3.6" transform="translate(-267.94 594.51) rotate(-60)"/><rect class="cls-1" x="379.06" y="519.63" width="0.5" height="8.76"/><rect class="cls-1" x="382.18" y="530.19" width="0.5" height="26.8"/><rect class="cls-1" x="338.49" y="528.34" width="40.82" height="0.5"/><path class="cls-1" d="M335.25,460.84a1.07,1.07,0,0,1-.39-.07,1.12,1.12,0,0,1-.62-.59,1.14,1.14,0,0,1,0-.85h0a1.12,1.12,0,0,1,.59-.62,1.09,1.09,0,0,1,.85,0,1.12,1.12,0,0,1-.4,2.16Zm0-1.73a.7.7,0,0,0-.25.05.61.61,0,0,0-.33.34h0a.64.64,0,0,0,0,.47.62.62,0,1,0,.79-.83A.6.6,0,0,0,335.26,459.11Z"/><path class="cls-1" d="M241.15,320.09a1.24,1.24,0,0,1-.41-.08,1.13,1.13,0,0,1-.63-1.45h0a1.12,1.12,0,0,1,.6-.61,1.09,1.09,0,0,1,.85,0,1,1,0,0,1,.61.59,1.09,1.09,0,0,1,0,.85A1.11,1.11,0,0,1,241.15,320.09Zm-.57-1.34a.61.61,0,0,0,.35.79.64.64,0,0,0,.47,0,.63.63,0,0,0,.32-.34.64.64,0,0,0,0-.47.64.64,0,0,0-.34-.33.62.62,0,0,0-.8.35Z"/><rect class="cls-1" x="338.24" y="528.59" width="0.5" height="31.17"/><rect class="cls-1" x="379.41" y="528.59" width="0.5" height="31.17"/></svg>